<svg width="17" height="18" viewBox="0 0 17 18" fill="none" xmlns="http://www.w3.org/2000/svg">
<path fill-rule="evenodd" clip-rule="evenodd" d="M9.945 1.64857C9.945 1.00911 9.42662 0.490723 8.78716 0.490723C8.1477 0.490723 7.62932 1.00911 7.62932 1.64857V8H1.15784C0.518385 8 2.98023e-08 8.51838 0 9.15784C-2.98023e-08 9.7973 0.518385 10.3157 1.15784 10.3157H7.62932V15.9286C7.62932 16.5681 8.1477 17.0865 8.78716 17.0865C9.42662 17.0865 9.945 16.5681 9.945 15.9286V10.3157H15.4379C16.0774 10.3157 16.5957 9.7973 16.5957 9.15784C16.5957 8.51838 16.0774 8 15.4379 8H9.945V1.64857Z" fill="white"/>
</svg>
