<svg width="48" height="37" viewBox="0 0 48 37" fill="none" xmlns="http://www.w3.org/2000/svg">
<path fill-rule="evenodd" clip-rule="evenodd" d="M19.0841 0.0249931C14.517 0.247056 10.7587 0.557077 9.83496 0.787924C8.45835 1.13194 6.86669 4.04317 4.76212 10.0665L4.12057 11.9025L3.81039 11.9322C3.63978 11.9485 3.21646 11.9762 2.86965 11.9937C1.62132 12.0569 1.20779 12.1906 0.838821 12.6501C0.637762 12.9005 0.634519 12.9135 0.659561 13.3665C0.681961 13.7725 0.718113 13.8925 0.96085 14.366C1.1126 14.662 1.3781 15.0781 1.551 15.2906C1.85721 15.667 1.86441 15.6846 1.83283 15.9751C1.81499 16.1391 1.65068 16.8893 1.4677 17.6422C0.870409 20.0995 0.272276 22.9384 0.0770418 24.2429C-0.225808 26.2666 0.359594 27.9598 1.9151 29.5596L2.29914 29.9546L2.32917 32.9536L2.3592 35.9526L2.52206 36.2157C2.72426 36.5424 3.02837 36.8007 3.3299 36.902C3.51024 36.9626 4.12723 36.9793 6.17259 36.9793H8.78492L9.05516 36.846C9.43873 36.6568 9.70698 36.3928 9.78722 36.1257C9.82577 35.9973 9.87171 35.2647 9.89111 34.4695L9.92594 33.0435L23.9851 33.0291L38.0443 33.0147L38.0879 34.4075C38.1118 35.1735 38.1543 35.8967 38.1823 36.0146C38.2451 36.2793 38.3763 36.4497 38.7466 36.7479L39.0339 36.9793L41.668 36.9964C43.41 37.0076 44.3831 36.9927 44.5413 36.9522C44.8317 36.878 45.388 36.4113 45.5455 36.1098C45.6496 35.9106 45.6589 35.6868 45.6778 32.934L45.6981 29.9724L46.1273 29.5231C46.9781 28.6325 47.5443 27.6785 47.8295 26.6548C48.0465 25.8758 48.0568 24.819 47.8578 23.7457C47.4551 21.5744 46.7601 18.4256 46.3 16.6882L46.0625 15.7912L46.418 15.3477C46.6135 15.1038 46.9005 14.6635 47.0557 14.3692C47.2981 13.9093 47.3408 13.7763 47.3596 13.4228C47.4066 12.5385 46.9264 12.1529 45.6197 12.0256C45.2868 11.9931 44.8451 11.9666 44.638 11.9666C43.8769 11.9666 43.9288 12.0128 43.5901 11.0327C41.6623 5.45301 40.4395 2.80828 39.1781 1.49073C38.659 0.948439 38.4157 0.820723 37.6896 0.709378C35.7653 0.414302 31.6611 0.114206 28.6026 0.0450716C26.467 -0.00324259 19.9478 -0.0169895 19.0841 0.0249931ZM29.1431 2.89875C31.378 3.00222 33.2806 3.12771 34.7881 3.27106C36.6016 3.44355 36.9973 3.50453 37.178 3.63955C37.329 3.75243 37.8725 4.75927 38.386 5.87757C38.9663 7.14144 40.7484 11.8287 40.6751 11.8984C40.6361 11.9354 7.31361 11.9888 7.31361 11.9518C7.31361 11.9424 7.48596 11.4478 7.69657 10.8526C8.79027 7.7624 9.91141 5.08703 10.5435 4.05903C10.8336 3.58718 10.9711 3.50653 11.6375 3.41765C13.3999 3.18253 18.461 2.87958 21.6664 2.81735C23.1811 2.78797 27.8466 2.83874 29.1431 2.89875ZM8.43313 20.4684C9.44317 20.7979 10.1008 21.5928 10.1805 22.5803C10.2631 23.6032 9.66945 24.5647 8.66614 25.0331C8.27765 25.2144 8.20529 25.2288 7.67525 25.2285C6.942 25.2282 6.53159 25.1097 6.0424 24.7571C5.3752 24.2763 4.94444 23.4898 4.95735 22.7764C4.96972 22.0943 5.38709 21.2753 5.93058 20.8664C6.21247 20.6544 6.73295 20.4224 7.08397 20.3525C7.43972 20.2816 8.01107 20.3307 8.43313 20.4684ZM40.9557 20.3583C42.02 20.5712 42.8144 21.378 42.9985 22.4334C43.1292 23.1828 42.853 23.9641 42.2565 24.5319C41.852 24.9171 41.4179 25.125 40.8401 25.2104C40.0532 25.3268 39.4545 25.1776 38.7894 24.6994C38.1115 24.2119 37.8508 23.6699 37.8508 22.7474C37.8508 22.1911 37.8646 22.1209 38.0443 21.7605C38.5685 20.7094 39.784 20.1239 40.9557 20.3583ZM32.2383 21.6939C32.5615 21.9193 32.777 22.2751 32.775 22.5801C32.7722 22.9946 32.3506 23.5384 31.9495 23.6451C31.8592 23.669 28.2588 23.6886 23.9484 23.6886C15.2403 23.6886 15.9705 23.7217 15.564 23.3085C15.0753 22.8116 15.1501 22.1516 15.7439 21.7186L16.0514 21.4944L24.0004 21.4934L31.9495 21.4925L32.2383 21.6939Z" fill="white"/>
</svg>
