<svg width="34" height="26" viewBox="0 0 34 26" fill="none" xmlns="http://www.w3.org/2000/svg">
<path fill-rule="evenodd" clip-rule="evenodd" d="M13.5179 0.0175627C10.2829 0.173607 7.62075 0.391459 6.96643 0.553676C5.99133 0.795419 4.86391 2.84115 3.37317 7.07374L2.91873 8.36394L2.69903 8.38478C2.57818 8.39621 2.27833 8.41569 2.03267 8.42803C1.14843 8.47245 0.855518 8.56636 0.594165 8.88923C0.451748 9.0652 0.449451 9.07434 0.467189 9.39268C0.483056 9.67799 0.508664 9.76229 0.680602 10.0951C0.788095 10.303 0.976155 10.5954 1.09862 10.7447C1.31552 11.0093 1.32063 11.0216 1.29825 11.2257C1.28562 11.341 1.16923 11.8681 1.03962 12.3972C0.61654 14.124 0.192862 16.1189 0.0545713 17.0356C-0.159947 18.4576 0.254712 19.6475 1.35653 20.7716L1.62856 21.0492L1.64983 23.1566L1.6711 25.264L1.78646 25.4489C1.92968 25.6784 2.1451 25.86 2.35868 25.9311C2.48642 25.9737 2.92346 25.9855 4.37225 25.9855H6.22265L6.41407 25.8918C6.68576 25.7588 6.87578 25.5733 6.93261 25.3856C6.95992 25.2954 6.99246 24.7806 7.0062 24.2218L7.03087 23.2197L16.9895 23.2096L26.9481 23.1995L26.9789 24.1782C26.9959 24.7165 27.026 25.2247 27.0458 25.3075C27.0903 25.4936 27.1832 25.6133 27.4455 25.8228L27.649 25.9855L29.5148 25.9975C30.7487 26.0054 31.438 25.9948 31.5501 25.9664C31.7558 25.9142 32.1498 25.5863 32.2614 25.3745C32.3351 25.2345 32.3417 25.0772 32.3551 23.1428L32.3695 21.0617L32.6735 20.7459C33.2761 20.1201 33.6772 19.4497 33.8792 18.7304C34.033 18.183 34.0402 17.4404 33.8993 16.6861C33.614 15.1604 33.1218 12.9477 32.7958 11.7268L32.6276 11.0965L32.8794 10.7849C33.0179 10.6135 33.2212 10.3041 33.3311 10.0973C33.5028 9.77411 33.5331 9.68064 33.5464 9.43224C33.5797 8.81087 33.2395 8.53991 32.3139 8.4504C32.0782 8.42759 31.7653 8.40895 31.6186 8.40895C31.0795 8.40895 31.1162 8.44142 30.8764 7.75271C29.5108 3.83185 28.6446 1.97339 27.7512 1.04754C27.3835 0.666471 27.2111 0.576724 26.6968 0.498482C25.3337 0.291131 22.4266 0.0802529 20.2602 0.0316719C18.7475 -0.00227858 14.1297 -0.0119385 13.5179 0.0175627ZM20.643 2.03696C22.2261 2.10967 23.5738 2.19785 24.6416 2.29858C25.9261 2.41979 26.2064 2.46264 26.3344 2.55752C26.4414 2.63684 26.8264 3.34435 27.1901 4.13019C27.6011 5.01831 28.8635 8.31207 28.8115 8.36105C28.7839 8.38707 5.18047 8.42455 5.18047 8.39853C5.18047 8.39196 5.30256 8.0444 5.45174 7.62617C6.22644 5.45466 7.02058 3.57467 7.46829 2.85229C7.67379 2.52072 7.7712 2.46404 8.2432 2.4016C9.49156 2.23637 13.0766 2.02349 15.347 1.97976C16.42 1.95912 19.7247 1.99479 20.643 2.03696ZM5.97347 14.3832C6.68891 14.6147 7.15474 15.1733 7.21119 15.8672C7.26968 16.5861 6.84919 17.2617 6.13851 17.5908C5.86334 17.7183 5.81208 17.7283 5.43664 17.7282C4.91725 17.7279 4.62655 17.6447 4.28003 17.3969C3.80744 17.059 3.50231 16.5063 3.51146 16.005C3.52022 15.5257 3.81586 14.9502 4.20083 14.6629C4.4005 14.5139 4.76918 14.3509 5.01781 14.3018C5.2698 14.2519 5.67451 14.2864 5.97347 14.3832ZM29.0103 14.3058C29.7642 14.4554 30.3268 15.0224 30.4573 15.764C30.5499 16.2906 30.3542 16.8397 29.9317 17.2387C29.6451 17.5093 29.3377 17.6554 28.9284 17.7154C28.371 17.7972 27.9469 17.6924 27.4758 17.3563C26.9956 17.0138 26.811 16.6329 26.811 15.9847C26.811 15.5938 26.8207 15.5444 26.9481 15.2912C27.3193 14.5526 28.1803 14.1411 29.0103 14.3058ZM22.8355 15.2444C23.0644 15.4027 23.2171 15.6528 23.2156 15.8671C23.2137 16.1584 22.915 16.5405 22.6309 16.6154C22.567 16.6323 20.0166 16.6461 16.9635 16.6461C10.7952 16.6461 11.3124 16.6693 11.0245 16.3789C10.6784 16.0298 10.7313 15.566 11.1519 15.2617L11.3697 15.1042L17.0003 15.1035L22.6309 15.1029L22.8355 15.2444Z" fill="#23DF00"/>
</svg>
