<svg width="15" height="13" viewBox="0 0 15 13" fill="none" xmlns="http://www.w3.org/2000/svg">
<path fill-rule="evenodd" clip-rule="evenodd" d="M5.72868 0.311315C4.66089 0.379037 3.86568 0.567335 3.47938 0.843904C3.19262 1.04921 2.86067 1.52729 2.51145 2.23792C2.2628 2.7439 2.11719 3.13819 1.94167 3.78089C1.90493 3.91543 1.86581 4.05806 1.85472 4.09784L1.83458 4.17017L1.70806 3.98306C1.53806 3.73159 1.43761 3.61517 1.30325 3.51384C1.07291 3.34011 0.944086 3.29967 0.618116 3.29877C0.209008 3.29764 0.0753272 3.3842 0.019683 3.68615C-0.00646063 3.82801 -0.00657316 4.14044 0.0194204 4.32993C0.0450952 4.51702 0.0959945 4.61052 0.210921 4.68178C0.294547 4.73362 0.318403 4.73844 0.557877 4.752C0.699323 4.76 0.958508 4.76798 1.13386 4.76971C1.30922 4.77144 1.50259 4.77829 1.5636 4.78493L1.67451 4.79699L1.50696 4.97575C1.11591 5.39296 0.903408 5.72302 0.72134 6.19607C0.556021 6.62555 0.514723 6.93533 0.530383 7.62835C0.553826 8.66594 0.663052 9.54814 0.831729 10.0624C0.989753 10.5443 1.09468 10.7015 1.34701 10.8345C1.50285 10.9167 1.49233 10.8791 1.50824 11.4111C1.52457 11.9576 1.55672 12.0886 1.69818 12.186C1.83199 12.278 1.89583 12.286 2.49355 12.286C3.09113 12.286 3.15363 12.2782 3.29062 12.1858C3.42955 12.0921 3.45237 12.0139 3.47446 11.5556C3.48502 11.3364 3.49528 11.1547 3.49723 11.1519C3.4992 11.1492 3.87549 11.1703 4.33343 11.1989L5.16605 11.2508L7.51035 11.2505C9.84823 11.2502 9.85688 11.25 10.6705 11.1989C11.1192 11.1707 11.4926 11.1477 11.5003 11.1476C11.5081 11.1476 11.5145 11.2641 11.5146 11.4064C11.5148 11.9399 11.5564 12.0837 11.7432 12.1966C11.8931 12.2873 11.9986 12.2993 12.5823 12.2923L13.1002 12.286L13.2309 12.2202C13.4488 12.1104 13.4746 12.0228 13.4985 11.3076L13.5118 10.9124L13.6496 10.84C13.7253 10.8001 13.8211 10.7327 13.8624 10.69C14.0053 10.5422 14.1836 10.1007 14.2702 9.67993C14.4521 8.79658 14.5328 7.2041 14.422 6.68316C14.29 6.06219 13.9918 5.51054 13.5074 4.99103L13.3265 4.79699L13.4379 4.78493C13.4991 4.77829 13.7012 4.77163 13.8868 4.7701C14.4034 4.76591 14.6818 4.74258 14.7731 4.69584C14.9276 4.61677 14.9814 4.47831 14.9969 4.11959C15.0093 3.8329 14.9845 3.63896 14.9185 3.50831C14.8351 3.34323 14.7305 3.3021 14.3932 3.3018C14.0164 3.30148 13.8205 3.37646 13.5854 3.61101C13.5018 3.69445 13.3771 3.84841 13.3069 3.95495C13.2369 4.06102 13.173 4.14782 13.1649 4.14782C13.1568 4.14782 13.1447 4.11826 13.1379 4.08213C13.1136 3.95216 12.9214 3.30441 12.8306 3.04672C12.6064 2.41006 12.3233 1.85086 11.9494 1.30649C11.6013 0.79959 11.2207 0.589088 10.3891 0.443465C9.92721 0.362553 9.53967 0.327742 8.89615 0.309321C8.14618 0.28787 6.07791 0.289168 5.72868 0.311315ZM8.64499 1.2316C9.803 1.27684 10.8714 1.45868 11.1785 1.66283C11.2764 1.72784 11.3612 1.86319 11.5805 2.30378C11.9324 3.01082 12.1675 3.64298 12.3103 4.26659C12.3583 4.47651 12.3638 4.46774 12.1849 4.4674C12.0998 4.46723 11.9289 4.45865 11.8051 4.4483C9.42097 4.24915 6.7321 4.23022 4.01305 4.39345C3.44639 4.42747 3.28006 4.43921 2.78757 4.48001L2.64083 4.49216L2.65385 4.41878C2.71217 4.09001 2.98766 3.23037 3.16048 2.83787C3.38624 2.32519 3.65799 1.81915 3.76546 1.71134C3.9931 1.48294 5.22646 1.25734 6.4226 1.2253C6.94014 1.21145 8.22217 1.21508 8.64499 1.2316ZM3.20622 6.04183C3.37488 6.08871 3.56265 6.19779 3.68656 6.3209C3.88228 6.51536 3.95488 6.70132 3.96939 7.04559C3.97868 7.26539 3.97618 7.2891 3.93136 7.40734C3.80479 7.74136 3.50713 8.01998 3.2026 8.08947C2.83018 8.17444 2.45443 8.07671 2.20491 7.82995C1.8629 7.49174 1.78061 7.0019 1.99491 6.58001C2.22368 6.12963 2.7233 5.90765 3.20622 6.04183ZM12.4337 6.07106C12.8548 6.2249 13.1167 6.60618 13.1161 7.06441C13.1155 7.43751 12.9487 7.7486 12.6382 7.9554C12.4875 8.05582 12.3406 8.10162 12.1333 8.11282C11.8032 8.13066 11.5974 8.05786 11.3633 7.84048C11.1429 7.6358 11.061 7.47849 11.0251 7.19104C10.9267 6.40426 11.6882 5.79878 12.4337 6.07106ZM9.56686 8.11685C9.84443 8.13384 9.8774 8.14597 9.95549 8.25995C10.0403 8.38376 10.0245 8.51228 9.90152 8.697C9.80802 8.83749 9.52819 9.13728 9.43886 9.19267C9.28069 9.29074 9.2748 9.2911 7.64163 9.29902C6.02958 9.30683 5.7914 9.29812 5.62237 9.22517C5.55828 9.19751 5.47811 9.12986 5.34454 8.99071C4.99811 8.62985 4.92502 8.45016 5.04462 8.25344C5.10354 8.15649 5.18258 8.13423 5.52239 8.1188C5.9465 8.09957 9.25824 8.09795 9.56686 8.11685Z" fill="black"/>
</svg>
