<svg width="12" height="13" viewBox="0 0 12 13" fill="none" xmlns="http://www.w3.org/2000/svg">
<path d="M6.85714 1.63867C6.85714 1.08639 7.30486 0.638672 7.85714 0.638672H11C11.5523 0.638672 12 1.08639 12 1.63867V4.78153C12 5.33381 11.5523 5.78153 11 5.78153H7.85714C7.30486 5.78153 6.85714 5.33381 6.85714 4.78153V1.63867Z" fill="black"/>
<path d="M0 1.63867C0 1.08639 0.447715 0.638672 1 0.638672H4.14286C4.69514 0.638672 5.14286 1.08639 5.14286 1.63867V4.78153C5.14286 5.33381 4.69514 5.78153 4.14286 5.78153H1C0.447716 5.78153 0 5.33381 0 4.78153V1.63867Z" fill="black"/>
<path d="M0 8.49582C0 7.94353 0.447715 7.49581 1 7.49581H4.14286C4.69514 7.49581 5.14286 7.94353 5.14286 8.49581V11.6387C5.14286 12.191 4.69514 12.6387 4.14286 12.6387H1C0.447716 12.6387 0 12.191 0 11.6387V8.49582Z" fill="black"/>
<path d="M6.85714 8.49582C6.85714 7.94353 7.30486 7.49581 7.85714 7.49581H11C11.5523 7.49581 12 7.94353 12 8.49581V11.6387C12 12.191 11.5523 12.6387 11 12.6387H7.85714C7.30486 12.6387 6.85714 12.191 6.85714 11.6387V8.49582Z" fill="black"/>
</svg>
