<svg width="30" height="30" viewBox="0 0 30 30" fill="none" xmlns="http://www.w3.org/2000/svg">
<path fill-rule="evenodd" clip-rule="evenodd" d="M11.4064 3.04856C10.8652 3.16324 10.4383 3.52768 10.2197 4.06173L10.1419 4.2516L10.1319 6.37186C10.1247 7.8712 10.1327 8.54773 10.159 8.682C10.2771 9.28456 10.8208 9.82257 11.4219 9.93184C11.5206 9.94979 12.162 9.96365 12.8924 9.96365H14.1878V11.4668V12.97H10.6147C8.13173 12.97 6.98913 12.9807 6.86944 13.005C6.26045 13.1286 5.739 13.6364 5.612 14.2295C5.58821 14.3406 5.57609 15.0102 5.57609 16.2152V18.0333H4.52153C3.87721 18.0333 3.39998 18.0469 3.29476 18.0683C2.68576 18.1919 2.16431 18.6997 2.03731 19.2928C1.98756 19.5251 1.98756 23.5035 2.03731 23.7359C2.15131 24.2682 2.55249 24.7067 3.10631 24.9042L3.31754 24.9795H6.551C9.62793 24.9795 9.79311 24.9766 9.9632 24.9202C10.355 24.79 10.672 24.5402 10.8855 24.1934C11.0978 23.8483 11.1006 23.8134 11.1006 21.4916C11.1006 19.5598 11.0962 19.3931 11.0403 19.1968C10.8819 18.6405 10.3652 18.1692 9.79912 18.0647C9.70576 18.0474 9.08295 18.0333 8.41517 18.0333H7.20095V16.6307C7.20095 15.039 7.20303 15.0233 7.44383 14.7888C7.70865 14.5309 7.02536 14.5523 15.0003 14.5523C22.9752 14.5523 22.2919 14.5309 22.5567 14.7888C22.7975 15.0233 22.7996 15.039 22.7996 16.6307V18.0333H21.5553C20.5422 18.0333 20.2754 18.0423 20.1197 18.0818C19.5715 18.2209 19.1006 18.6754 18.9595 19.2016C18.9095 19.388 18.9035 19.6299 18.9018 21.4998C18.9002 23.2644 18.9076 23.6182 18.9489 23.7728C19.1083 24.3687 19.5669 24.8081 20.1751 24.9477C20.4788 25.0174 26.4202 25.0174 26.7239 24.9477C27.3509 24.8038 27.8496 24.3034 27.9661 23.7015C28.0131 23.459 28.0104 19.5133 27.9632 19.2928C27.873 18.8716 27.5239 18.4174 27.1355 18.2159C26.8111 18.0476 26.6837 18.0333 25.5063 18.0333H24.4244L24.4225 16.1899C24.4209 14.5532 24.4144 14.3232 24.3649 14.1383C24.2177 13.5893 23.7094 13.1224 23.1311 13.005C23.0114 12.9807 21.8688 12.97 19.3858 12.97H15.8127V11.4668V9.96365H17.1082C17.8386 9.96365 18.4799 9.94979 18.5786 9.93184C19.1692 9.8245 19.7123 9.29542 19.8389 8.70418C19.8861 8.48364 19.8888 4.5379 19.8418 4.29546C19.7247 3.69008 19.2069 3.17669 18.5837 3.04809C18.2716 2.98369 11.7106 2.9841 11.4064 3.04856Z" fill="white"/>
</svg>
