<svg width="30" height="30" viewBox="0 0 30 30" fill="none" xmlns="http://www.w3.org/2000/svg">
<path fill-rule="evenodd" clip-rule="evenodd" d="M13.5696 3.09371C11.921 3.49333 10.4195 4.66886 9.65818 6.15609C9.26823 6.91785 9.22641 7.14959 9.22641 8.54846C9.22641 9.96134 9.26577 10.1744 9.67524 10.9745C10.2682 12.1327 11.2376 13.0376 12.5014 13.612C13.4214 14.0301 13.68 14.0802 14.9157 14.0802C16.1524 14.0802 16.4095 14.0302 17.3336 13.6102C18.5739 13.0466 19.5791 12.1018 20.1732 10.9408C20.5632 10.1791 20.605 9.94733 20.605 8.54846C20.605 7.14826 20.5633 6.91829 20.1717 6.15299C19.2377 4.32825 17.3484 3.11776 15.2684 3.01125C14.6515 2.97968 13.8872 3.01686 13.5696 3.09371ZM12.6861 15.2597C10.4579 15.6899 8.43759 16.6717 6.80815 18.1162C5.83959 18.9747 4.69035 20.274 4.69035 20.5103C4.69035 20.5841 5.21469 20.6445 5.85542 20.6445C6.93808 20.6445 7.05233 20.6751 7.46995 21.0757C7.75365 21.3479 7.91987 21.6608 7.92064 21.9239C7.92156 22.2644 8.17758 22.5554 9.31559 23.5093C10.4351 24.4477 10.6924 24.7379 10.6235 24.9844C10.5763 25.1531 10.5366 25.3383 10.5356 25.396C10.5343 25.4535 9.96248 25.5199 9.26485 25.5435L7.99629 25.5862L7.95247 26.0288C7.8253 27.311 7.28943 27.5762 4.81336 27.5824C3.11672 27.5865 2.95281 27.6094 3.22051 27.8037C3.47761 27.9901 5.11951 28.0164 15.0604 27.9926C21.4083 27.9773 25.7829 27.9276 24.7818 27.882C22.9642 27.7991 22.9613 27.7984 22.5138 27.3172C22.1602 26.937 22.0657 26.6961 22.0657 26.1739V25.5125H20.6819C19.9207 25.5125 19.298 25.4516 19.298 25.3771C19.298 25.3026 19.26 25.1465 19.2136 25.0304C19.1588 24.8938 19.6378 24.3918 20.5693 23.6094C21.4997 22.8279 22.0757 22.2244 22.1961 21.9049C22.4741 21.1675 22.9274 20.9583 24.3559 20.9089L25.6003 20.8658L25.145 20.207C24.4403 19.1871 22.8702 17.7238 21.6604 16.9592C19.0976 15.3397 15.6518 14.6872 12.6861 15.2597ZM17.3389 17.8327C17.9799 17.99 18.8039 18.2646 19.1702 18.4429C20.098 18.8947 21.1693 19.6151 21.1132 19.7494C21.0873 19.8112 20.2066 20.5937 19.1558 21.4882L17.2454 23.1148L16.6186 22.8418C15.816 22.492 14.1559 22.4727 13.2953 22.803C12.6804 23.039 12.6604 23.0368 12.2543 22.6845C11.6336 22.1461 8.93025 19.8517 8.84199 19.7882C8.71545 19.6974 9.62773 19.0554 10.5645 18.5758C12.5125 17.5788 15.1325 17.2913 17.3389 17.8327ZM3.25034 18.0001C2.87347 18.2843 2.84518 18.3876 2.84518 19.4752C2.84518 20.5366 2.87285 20.6445 3.14532 20.6445C3.33184 20.6445 3.63153 20.3793 3.93721 19.9439C4.20768 19.5586 4.56288 19.1001 4.72664 18.9251C4.96667 18.6686 4.99127 18.5482 4.8538 18.3016C4.49645 17.6612 3.85833 17.5412 3.25034 18.0001ZM25.4272 18.275C25.1573 18.4876 25.1037 18.6159 25.2179 18.7754C25.3025 18.8934 25.6754 19.4286 26.0466 19.9648C26.9572 21.2799 27.14 21.2473 27.14 19.7702C27.14 18.6826 27.1117 18.5794 26.7348 18.2951C26.2298 17.9141 25.8923 17.9089 25.4272 18.275ZM1.6372 21.5779C1.22157 22.0583 1 22.904 1 24.0107C1 25.2937 1.18898 26.0053 1.66319 26.5082C1.9618 26.8248 2.08466 26.8401 4.32178 26.8401C6.9021 26.8401 7.15058 26.763 7.15058 25.9625C7.15058 25.3069 6.79862 25.1524 5.08968 25.0579L3.53712 24.9719L5.10229 24.9472C6.83398 24.9198 7.15058 24.7804 7.15058 24.0449C7.15058 23.4107 6.80953 23.2555 5.17917 23.1481L3.69088 23.0502L5.12335 23.0275C5.91109 23.0149 6.6896 22.936 6.8532 22.8521C7.1941 22.677 7.26652 21.8474 6.96607 21.5591C6.69083 21.2951 1.86723 21.3119 1.6372 21.5779ZM23.0761 21.9089C22.9433 22.0365 22.8346 22.2973 22.8346 22.4885C22.8346 23.1543 23.187 23.2979 24.8829 23.3229L26.448 23.3461L24.8852 23.4418C23.1813 23.5464 22.8346 23.6962 22.8346 24.3275C22.8346 25.0431 23.2265 25.2147 24.9225 25.2422L26.448 25.2669L24.8955 25.3529C23.1939 25.447 22.8346 25.6026 22.8346 26.2452C22.8346 27.0357 23.1581 27.1351 25.7298 27.1351C28.385 27.1351 28.5142 27.0851 28.8382 25.9307C29.0524 25.1677 29.0543 23.4125 28.8417 22.7263C28.5257 21.7059 28.4405 21.6771 25.7432 21.6771C23.7433 21.6771 23.2754 21.7179 23.0761 21.9089Z" fill="white"/>
</svg>
