<svg width="39" height="36" viewBox="0 0 39 36" fill="none" xmlns="http://www.w3.org/2000/svg">
<path fill-rule="evenodd" clip-rule="evenodd" d="M36.6324 0.37067C36.0314 0.577287 34.679 1.02603 33.6271 1.36788C31.5257 2.05091 31.3937 2.12565 31.4695 2.59109C31.5154 2.87267 31.6457 3.00299 32.8305 3.95193L33.4779 4.47056L32.9823 5.00486C32.7097 5.29875 32.2439 5.80768 31.9473 6.13588C29.6887 8.63438 24.8381 13.098 22.5036 14.826C22.203 15.0485 21.4478 15.6115 20.8253 16.0771C19.6889 16.927 19.0634 17.3476 16.8695 18.7373C15.3724 19.6856 14.8298 20.011 14.2787 20.291C14.0368 20.4139 13.4019 20.7506 12.8678 21.0391C9.33882 22.9455 4.33159 24.7653 1.1191 25.3092C0.195031 25.4656 -0.0669388 25.6383 0.0137753 26.0379C0.0698224 26.3153 0.316024 26.5365 0.568704 26.5365C0.964 26.5365 3.14593 26.0765 4.27655 25.7548C6.57901 25.0997 8.0748 24.5523 10.4433 23.498C12.2502 22.6937 13.8074 21.9104 15.1269 21.1421C15.6206 20.8546 16.3232 20.4509 16.6881 20.2448C17.3112 19.893 19.737 18.3155 20.513 17.7574C22.5353 16.3031 23.1598 15.8254 25.0777 14.2663C27.6117 12.2062 31.2686 8.67637 34.1537 5.50566L34.3877 5.24847L35.2369 5.95791C36.2975 6.84405 36.4134 6.91909 36.7222 6.91909C37.0375 6.91909 37.2557 6.67092 37.3268 6.23173C37.3553 6.05592 37.6254 4.70709 37.9273 3.23429C38.5209 0.337626 38.526 0.248937 38.1066 0.0664133C37.8429 -0.0483822 37.8652 -0.0530068 36.6324 0.37067ZM9.97493 2.74199C9.84083 2.87014 9.81882 2.9906 9.81882 3.59643V4.30161L9.52609 4.34965C8.87546 4.45646 8.28509 4.62899 7.84616 4.84076C6.41883 5.52923 5.75345 7.25698 6.27247 8.92722C6.40072 9.33986 6.89882 10.0046 7.30372 10.3036C7.66842 10.5729 8.51568 10.9526 9.25288 11.177L9.81882 11.3493V13.3123V15.2753L9.5303 15.16C8.81207 14.8733 8.44129 14.4474 8.06567 13.4774C7.7624 12.6944 7.56834 12.4792 7.09647 12.4031C6.67573 12.3352 6.13235 12.5644 5.91816 12.8999C5.62129 13.3652 5.77078 14.2786 6.26334 15.0087C6.90952 15.9665 7.90033 16.604 9.1041 16.8365L9.77979 16.9669L9.81882 17.6975C9.85542 18.3833 9.87073 18.4372 10.0675 18.5773C10.2506 18.7076 10.3069 18.7148 10.5113 18.6338C10.8131 18.5144 10.9117 18.2394 10.9117 17.5167V16.9479L11.4913 16.8598C12.6522 16.6833 13.7071 16.0651 14.2877 15.2211C14.8679 14.3777 15.0778 13.4639 14.9012 12.5507C14.6257 11.1264 13.6028 10.2273 11.5947 9.64441L10.9117 9.44615V7.69655V5.94687L11.2932 6.13163C11.7971 6.37562 12.2025 6.83681 12.3181 7.29778C12.5227 8.11232 13.2059 8.4673 13.9339 8.13716C14.8328 7.72959 14.6459 6.45058 13.5317 5.3846C12.9745 4.85157 12.3855 4.56231 11.5285 4.40097L10.926 4.28759L10.8993 3.58271C10.8753 2.94801 10.8543 2.86365 10.6883 2.73535C10.4505 2.55134 10.1717 2.55395 9.97493 2.74199ZM9.81882 7.55311C9.81882 8.43515 9.79907 9.15681 9.77495 9.15681C9.75082 9.15681 9.54888 9.07394 9.3261 8.97265C8.56408 8.62617 8.25762 8.20832 8.25762 7.51581C8.25762 7.09288 8.39453 6.72239 8.62239 6.52868C8.82074 6.36003 9.59564 5.95246 9.72124 5.95075C9.79633 5.9497 9.81882 6.31915 9.81882 7.55311ZM33.1957 8.13029C32.4676 8.87949 31.0023 10.3265 29.9394 11.3461L28.0068 13.1996V23.8083V34.4171L28.2019 34.5923L28.3969 34.7673L31.3438 34.7495C34.5886 34.7299 34.5955 34.7289 34.6798 34.2759C34.7651 33.8185 34.6868 6.82145 34.6001 6.79392C34.5557 6.77975 33.9237 7.3811 33.1957 8.13029ZM11.659 11.9438C11.9603 12.0817 12.3009 12.3014 12.4159 12.432C13.0602 13.1638 12.7994 14.4445 11.9018 14.9563C11.6792 15.0832 11.3654 15.2205 11.2044 15.2614L10.9117 15.3359V13.5143C10.9117 12.0855 10.9331 11.6929 11.0114 11.6929C11.0663 11.6929 11.3577 11.8058 11.659 11.9438ZM24.5331 16.0623C23.465 16.9144 20.8603 18.82 19.5568 19.7032L19.0299 20.0602V27.2386V34.4171L19.2222 34.5898L19.4147 34.7625L22.4032 34.7531L25.3918 34.7436L25.5674 34.5519L25.7431 34.3602V24.7421C25.7431 19.4522 25.7342 15.1251 25.7235 15.1262C25.7128 15.1274 25.1771 15.5486 24.5331 16.0623ZM15.5156 22.1566C14.8492 22.5348 13.33 23.3105 12.1395 23.8803L9.97493 24.9163V29.5194C9.97493 32.6959 10.0018 34.196 10.0614 34.3597C10.2325 34.8286 10.2969 34.8366 13.4763 34.7849C16.6185 34.7338 16.6413 34.7302 16.7262 34.2759C16.7512 34.1423 16.7616 31.206 16.7494 27.7509L16.7271 21.469L15.5156 22.1566ZM7.10834 25.942C5.93143 26.3976 2.6828 27.297 1.68887 27.4423L1.07609 27.532V30.9809V34.4299L1.31628 34.623L1.5564 34.8161H4.36445C7.46734 34.8161 7.53985 34.8062 7.70276 34.3597C7.8019 34.0878 7.82907 25.7134 7.73071 25.7199C7.69855 25.722 7.41847 25.8219 7.10834 25.942ZM2.14942 35.4555C1.91032 35.5794 1.87597 35.7209 2.05106 35.8598C2.20281 35.9801 3.14562 36.0542 3.21228 35.9511C3.30252 35.8116 3.16943 35.6327 2.865 35.4842C2.51076 35.3116 2.43301 35.3085 2.14942 35.4555Z" fill="white"/>
</svg>
