<svg width="30" height="30" viewBox="0 0 30 30" fill="none" xmlns="http://www.w3.org/2000/svg">
<path fill-rule="evenodd" clip-rule="evenodd" d="M28.125 0.0791838C28.9881 0.319301 29.6882 1.02664 29.9183 1.89084C29.985 2.14157 29.9988 4.14489 29.9993 13.7379C30.0001 26.372 30.0197 25.6376 29.6648 26.2434C29.4518 26.6069 29.0146 27.0289 28.6747 27.1991C28.5174 27.2778 26.6221 27.9325 24.4629 28.6539L20.5372 29.9656L20.0098 29.9655C19.364 29.9654 19.0027 29.8512 18.5171 29.4937C18.1218 29.2027 17.8095 28.7724 17.6366 28.2806C17.5403 28.0064 17.5196 27.7971 17.5196 27.0964V26.2453L15.4541 26.2443C13.0943 26.2432 12.8598 26.2143 12.0704 25.8279C11.1223 25.3637 10.3515 24.3987 10.1108 23.3742C9.9768 22.8039 9.97633 17.3216 10.1103 17.0011C10.5025 16.0623 11.8585 16.001 12.3542 16.8996C12.4396 17.0543 12.4547 17.4207 12.4805 19.9465L12.5098 22.8176L12.6563 23.0787C12.7369 23.2223 12.9171 23.42 13.0568 23.5181L13.3107 23.6965L15.4145 23.7133L17.5182 23.73L17.5335 14.0453L17.5489 4.36057L17.7343 3.96916C18.0398 3.32428 18.4507 2.94301 19.1539 2.65198L19.4825 2.51598L16.3966 2.5301L13.3108 2.54416L13.0568 2.72252C12.9171 2.82067 12.7369 3.01842 12.6563 3.16198L12.5098 3.42307L12.4805 5.67893C12.4518 7.88985 12.4486 7.93901 12.3196 8.14637C12.2473 8.26274 12.0782 8.43413 11.9438 8.52723C11.7263 8.67793 11.6502 8.69651 11.25 8.69651C10.8554 8.69651 10.7726 8.677 10.5712 8.53631C10.4451 8.44825 10.2759 8.27879 10.1954 8.15985L10.0489 7.94352L10.0323 5.61284C10.0137 2.99205 10.0312 2.82911 10.4161 2.04612C10.7325 1.40264 11.4053 0.738364 12.0704 0.412817C12.9613 -0.0232966 12.5412 -0.0031404 20.625 0.00160569C26.2305 0.00488694 27.9208 0.0223479 28.125 0.0791838ZM6.76815 6.37414C7.06352 6.50832 7.35796 6.8395 7.43794 7.12754C7.47508 7.26143 7.49952 8.11842 7.49969 9.29709L7.50005 11.2453H10.1253H12.7505L13.0589 11.399C13.5864 11.6619 13.8436 12.2161 13.7054 12.7921C13.6107 13.1867 13.2071 13.5983 12.8191 13.696C12.6309 13.7434 11.7608 13.7649 10.0229 13.7649H7.50005V15.7063C7.50005 17.0727 7.47872 17.7192 7.42797 17.8889C7.28583 18.3647 6.73792 18.7475 6.20419 18.744C5.73819 18.741 5.57846 18.6049 2.88421 15.9153C0.183678 13.2195 4.55379e-05 13.0048 4.55379e-05 12.5444C4.55379e-05 11.9916 -0.0326501 12.0308 2.80768 9.17821C4.56778 7.41049 5.55977 6.45647 5.7168 6.38036C6.01598 6.23534 6.45684 6.2327 6.76815 6.37414Z" fill="white"/>
</svg>
