<svg width="24" height="auto" viewBox="0 0 49 49" fill="none" xmlns="http://www.w3.org/2000/svg">
<path d="M41.3142 10.1484H6.80793C6.48258 10.1488 6.17067 10.2783 5.94065 10.5084C5.71064 10.7385 5.58131 11.0504 5.58105 11.3758V13.8449C5.58105 13.9587 5.70441 14.0892 5.80521 14.142L23.9425 24.5019C23.989 24.5284 24.0416 24.5422 24.0951 24.5417C24.1498 24.5419 24.2036 24.5273 24.2507 24.4995L41.8398 14.1521C41.9387 14.0969 42.2007 13.951 42.2991 13.8838C42.4182 13.8027 42.5411 13.7292 42.5411 13.5838V11.3753C42.5407 11.05 42.4113 10.7382 42.1813 10.5082C41.9513 10.2782 41.6394 10.1488 41.3142 10.1484V10.1484Z" fill="black"/>
<path d="M42.3879 17.5679C42.3407 17.541 42.2872 17.527 42.2329 17.5273C42.1785 17.5277 42.1252 17.5424 42.0783 17.5699L32.1246 23.4263C32.0849 23.4495 32.051 23.4812 32.0252 23.5192C31.9995 23.5573 31.9827 23.6006 31.976 23.646C31.9693 23.6914 31.9729 23.7378 31.9866 23.7816C32.0003 23.8254 32.0236 23.8656 32.055 23.8991L42.0102 34.6305C42.0387 34.6615 42.0734 34.6862 42.1119 34.7031C42.1505 34.7199 42.1922 34.7286 42.2343 34.7284C42.3156 34.7283 42.3936 34.6959 42.4511 34.6384C42.5086 34.581 42.5409 34.503 42.5411 34.4217V17.8343C42.5413 17.7804 42.5272 17.7273 42.5003 17.6806C42.4734 17.6338 42.4347 17.5949 42.3879 17.5679Z" fill="black"/>
<path d="M29.2561 25.3928C29.2089 25.3413 29.1454 25.3076 29.0763 25.2973C29.0072 25.287 28.9367 25.3007 28.8764 25.3361L24.8867 27.6838C24.6529 27.8189 24.3881 27.8908 24.1181 27.8926C23.8481 27.8943 23.5823 27.8259 23.3468 27.6939L19.8356 25.688C19.779 25.6557 19.7135 25.6423 19.6487 25.6497C19.5838 25.6571 19.5231 25.685 19.4752 25.7292L6.14172 38.0969C6.10677 38.1296 6.07993 38.17 6.06335 38.2149C6.04676 38.2598 6.0409 38.3079 6.04621 38.3554C6.05153 38.403 6.06788 38.4487 6.09396 38.4888C6.12004 38.5289 6.15514 38.5624 6.19644 38.5865C6.4038 38.7084 6.60396 38.7665 6.80748 38.7665H40.9609C41.0207 38.7666 41.0792 38.7492 41.1291 38.7163C41.179 38.6835 41.2182 38.6367 41.2417 38.5817C41.2657 38.5271 41.2731 38.4666 41.263 38.4079C41.2529 38.3491 41.2258 38.2945 41.1851 38.251L29.2561 25.3928Z" fill="black"/>
<path d="M16.5414 24.2659C16.5767 24.2333 16.6038 24.1928 16.6206 24.1477C16.6374 24.1026 16.6433 24.0542 16.638 24.0064C16.6326 23.9586 16.6161 23.9128 16.5897 23.8725C16.5633 23.8323 16.5279 23.7989 16.4862 23.7749L6.0385 17.8075C5.99187 17.781 5.93911 17.7673 5.8855 17.7676C5.83188 17.7679 5.77929 17.7823 5.73298 17.8093C5.68666 17.8363 5.64826 17.875 5.6216 17.9215C5.59494 17.9681 5.58096 18.0208 5.58106 18.0744V33.732C5.58072 33.7918 5.59793 33.8504 5.63054 33.9005C5.66316 33.9506 5.70976 33.9901 5.76458 34.014C5.81939 34.0379 5.88001 34.0452 5.93894 34.035C5.99786 34.0248 6.0525 33.9976 6.0961 33.9566L16.5414 24.2659V24.2659Z" fill="black"/>
</svg>
