<svg width="16" height="auto" viewBox="0 0 12 4" fill="none" xmlns="http://www.w3.org/2000/svg">
<path d="M10.2545 3.5C9.86673 3.5 9.53438 3.3708 9.25741 3.1124C8.98045 2.85401 8.84197 2.53876 8.84197 2.16667C8.84197 1.79457 8.98045 1.47933 9.25741 1.22093C9.53438 0.962533 9.86673 0.833334 10.2545 0.833334C10.6422 0.833334 10.9746 0.962533 11.2515 1.22093C11.5285 1.47933 11.667 1.79457 11.667 2.16667C11.667 2.53876 11.5285 2.85401 11.2515 3.1124C10.9746 3.3708 10.6422 3.5 10.2545 3.5ZM1.74617 3.5C1.35842 3.5 1.02607 3.3708 0.749103 3.1124C0.47214 2.854 0.333658 2.53876 0.333658 2.16667C0.333658 1.79457 0.47214 1.47933 0.749103 1.22093C1.02607 0.962532 1.35842 0.833334 1.74617 0.833334C2.13392 0.833334 2.46628 0.962533 2.74324 1.22093C3.0202 1.47933 3.15868 1.79457 3.15868 2.16667C3.15868 2.53876 3.0202 2.854 2.74324 3.1124C2.46627 3.3708 2.13392 3.5 1.74617 3.5ZM6.00033 3.5C5.61258 3.5 5.28022 3.3708 5.00326 3.1124C4.72629 2.854 4.58781 2.53876 4.58781 2.16667C4.58781 1.79457 4.7263 1.47933 5.00326 1.22093C5.28022 0.962533 5.61258 0.833334 6.00033 0.833334C6.38807 0.833334 6.72043 0.962533 6.99739 1.22093C7.27436 1.47933 7.41284 1.79457 7.41284 2.16667C7.41284 2.53876 7.27436 2.85401 6.99739 3.1124C6.72043 3.3708 6.38807 3.5 6.00033 3.5Z" fill="black"/>
</svg>
