<svg width="21" height="23" viewBox="0 0 21 23" fill="none" xmlns="http://www.w3.org/2000/svg">
<path d="M10 20C11.1038 20 11.9991 19.1047 11.9991 18H8.00096C8.00096 19.1047 8.89627 20 10 20ZM16.731 15.3216C16.1272 14.6728 14.9975 13.6969 14.9975 10.5C14.9975 8.07188 13.295 6.12813 10.9994 5.65125V5C10.9994 4.44781 10.5519 4 10 4C9.44815 4 9.00065 4.44781 9.00065 5V5.65125C6.70502 6.12813 5.00252 8.07188 5.00252 10.5C5.00252 13.6969 3.87283 14.6728 3.26908 15.3216C3.08158 15.5231 2.99846 15.7641 3.00002 16C3.00346 16.5125 3.40565 17 4.00315 17H15.9969C16.5944 17 16.9969 16.5125 17 16C17.0016 15.7641 16.9185 15.5228 16.731 15.3216V15.3216Z" fill="#C5C7CD"/>
<circle cx="15" cy="6" r="3.75" fill="#23DF00" stroke="#F7F8FC" stroke-width="1.5"/>
</svg>
