<svg width="15" height="auto" viewBox="0 0 49 49" fill="none" xmlns="http://www.w3.org/2000/svg">
<g clip-path="url(#clip0_2241_7157)">
<path d="M48.9241 38.8935C48.9241 39.5071 48.8105 40.3082 48.5832 41.2969C48.356 42.2855 48.1173 43.0639 47.8673 43.6321C47.39 44.7685 46.0037 45.973 43.7082 47.2457C41.5719 48.4048 39.4582 48.9844 37.3673 48.9844C36.7537 48.9844 36.1514 48.9446 35.5605 48.8651C34.9696 48.7855 34.3162 48.6435 33.6003 48.4389C32.8844 48.2344 32.3503 48.0696 31.998 47.9446C31.6457 47.8196 31.015 47.5866 30.106 47.2457C29.1969 46.9048 28.64 46.7003 28.4355 46.6321C26.2082 45.8366 24.2196 44.8935 22.4696 43.8026C19.5832 42.0071 16.5832 39.5526 13.4696 36.4389C10.356 33.3253 7.90141 30.3253 6.10595 27.4389C5.01504 25.6889 4.07186 23.7003 3.27641 21.473C3.20822 21.2685 3.00368 20.7116 2.66277 19.8026C2.32186 18.8935 2.08891 18.2628 1.96391 17.9105C1.83891 17.5582 1.67413 17.0241 1.46959 16.3082C1.26504 15.5923 1.123 14.9389 1.04345 14.348C0.963906 13.7571 0.924133 13.1548 0.924133 12.5412C0.924133 10.4503 1.50368 8.33665 2.66277 6.20028C3.9355 3.90483 5.14004 2.51847 6.27641 2.04119C6.84459 1.79119 7.623 1.55256 8.61163 1.32528C9.60027 1.09801 10.4014 0.984375 11.015 0.984375C11.3332 0.984375 11.5719 1.01847 11.731 1.08665C12.14 1.22301 12.7423 2.08665 13.5378 3.67756C13.7878 4.10938 14.1287 4.72301 14.5605 5.51847C14.9923 6.31392 15.39 7.03551 15.7537 7.68324C16.1173 8.33097 16.4696 8.93892 16.8105 9.5071C16.8787 9.59801 17.0775 9.8821 17.4071 10.3594C17.7366 10.8366 17.981 11.2401 18.14 11.5696C18.2991 11.8991 18.3787 12.223 18.3787 12.5412C18.3787 12.9957 18.0548 13.5639 17.4071 14.2457C16.7594 14.9276 16.0548 15.5526 15.2935 16.1207C14.5321 16.6889 13.8275 17.2912 13.1798 17.9276C12.5321 18.5639 12.2082 19.0866 12.2082 19.4957C12.2082 19.7003 12.265 19.956 12.3787 20.2628C12.4923 20.5696 12.5889 20.8026 12.6685 20.9616C12.748 21.1207 12.9071 21.3935 13.1457 21.7798C13.3844 22.1662 13.515 22.3821 13.5378 22.4276C15.265 25.5412 17.2423 28.2116 19.4696 30.4389C21.6969 32.6662 24.3673 34.6435 27.481 36.3707C27.5264 36.3935 27.7423 36.5241 28.1287 36.7628C28.515 37.0014 28.7878 37.1605 28.9469 37.2401C29.106 37.3196 29.3389 37.4162 29.6457 37.5298C29.9525 37.6435 30.2082 37.7003 30.4128 37.7003C30.8219 37.7003 31.3446 37.3764 31.981 36.7287C32.6173 36.081 33.2196 35.3764 33.7878 34.6151C34.356 33.8537 34.981 33.1491 35.6628 32.5014C36.3446 31.8537 36.9128 31.5298 37.3673 31.5298C37.6855 31.5298 38.0094 31.6094 38.3389 31.7685C38.6685 31.9276 39.0719 32.1719 39.5491 32.5014C40.0264 32.831 40.3105 33.0298 40.4014 33.098C40.9696 33.4389 41.5775 33.7912 42.2253 34.1548C42.873 34.5185 43.5946 34.9162 44.39 35.348C45.1855 35.7798 45.7991 36.1207 46.231 36.3707C47.8219 37.1662 48.6855 37.7685 48.8219 38.1776C48.89 38.3366 48.9241 38.5753 48.9241 38.8935Z" fill="black"/>
</g>
<defs>
<clipPath id="clip0_2241_7157">
<rect width="48" height="48" fill="white" transform="translate(0.924133 0.984375)"/>
</clipPath>
</defs>
</svg>
