<svg width="28" height="29" viewBox="0 0 28 29" fill="none" xmlns="http://www.w3.org/2000/svg">
<path fill-rule="evenodd" clip-rule="evenodd" d="M18.439 18.9381C18.5988 18.7782 18.7885 18.6513 18.9973 18.5647C19.2061 18.4782 19.43 18.4336 19.656 18.4336C19.8821 18.4336 20.1059 18.4782 20.3148 18.5647C20.5236 18.6513 20.7133 18.7782 20.873 18.9381L27.4956 25.5607C27.8184 25.8832 27.9998 26.3208 28 26.7771C28.0002 27.2334 27.819 27.6711 27.4965 27.9939C27.174 28.3166 26.7364 28.498 26.2801 28.4982C25.8238 28.4984 25.3861 28.3173 25.0633 27.9947L18.4407 21.3721C18.2808 21.2124 18.1539 21.0226 18.0674 20.8138C17.9808 20.605 17.9362 20.3812 17.9362 20.1551C17.9362 19.929 17.9808 19.7052 18.0674 19.4964C18.1539 19.2876 18.2808 19.0978 18.4407 18.9381H18.439Z" fill="#8B8B8B"/>
<path fill-rule="evenodd" clip-rule="evenodd" d="M11.6575 21.6189C12.8999 21.6189 14.1302 21.3742 15.278 20.8988C16.4258 20.4233 17.4688 19.7264 18.3473 18.8479C19.2258 17.9694 19.9227 16.9264 20.3982 15.7786C20.8736 14.6307 21.1183 13.4005 21.1183 12.1581C21.1183 10.9156 20.8736 9.68539 20.3982 8.53755C19.9227 7.38971 19.2258 6.34675 18.3473 5.46823C17.4688 4.58971 16.4258 3.89282 15.278 3.41737C14.1302 2.94192 12.8999 2.69721 11.6575 2.69721C9.14831 2.69721 6.7419 3.69397 4.96765 5.46823C3.19339 7.24248 2.19663 9.64889 2.19663 12.1581C2.19663 14.6672 3.19339 17.0736 4.96765 18.8479C6.7419 20.6222 9.14831 21.6189 11.6575 21.6189V21.6189ZM22.8385 12.1581C22.8385 15.1235 21.6605 17.9674 19.5637 20.0642C17.4668 22.1611 14.6229 23.3391 11.6575 23.3391C8.6921 23.3391 5.84816 22.1611 3.75132 20.0642C1.65447 17.9674 0.476473 15.1235 0.476473 12.1581C0.476473 9.19267 1.65447 6.34874 3.75132 4.25189C5.84816 2.15505 8.6921 0.977051 11.6575 0.977051C14.6229 0.977051 17.4668 2.15505 19.5637 4.25189C21.6605 6.34874 22.8385 9.19267 22.8385 12.1581V12.1581Z" fill="#8B8B8B"/>
</svg>
