<svg width="15" height="auto" viewBox="0 0 48 57" fill="none" xmlns="http://www.w3.org/2000/svg">
<path d="M48 47.166C48 49.8626 47.2188 52.1758 45.6563 54.1055C44.0938 56.0352 42.2125 57 40.0125 57H7.9875C5.7875 57 3.90625 56.0352 2.34375 54.1055C0.78125 52.1758 0 49.8626 0 47.166C0 45.0632 0.10625 43.0778 0.31875 41.21C0.53125 39.3421 0.925 37.4619 1.5 35.5693C2.075 33.6768 2.80625 32.0563 3.69375 30.708C4.58125 29.3597 5.75625 28.2588 7.21875 27.4053C8.68125 26.5518 10.3625 26.125 12.2625 26.125C15.5375 29.2917 19.45 30.875 24 30.875C28.55 30.875 32.4625 29.2917 35.7375 26.125C37.6375 26.125 39.3188 26.5518 40.7813 27.4053C42.2438 28.2588 43.4188 29.3597 44.3063 30.708C45.1938 32.0563 45.925 33.6768 46.5 35.5693C47.075 37.4619 47.4688 39.3421 47.6813 41.21C47.8938 43.0778 48 45.0632 48 47.166ZM38.4 14.25C38.4 18.1836 36.9938 21.542 34.1813 24.3252C31.3688 27.1084 27.975 28.5 24 28.5C20.025 28.5 16.6313 27.1084 13.8188 24.3252C11.0063 21.542 9.6 18.1836 9.6 14.25C9.6 10.3164 11.0063 6.95801 13.8188 4.1748C16.6313 1.3916 20.025 0 24 0C27.975 0 31.3688 1.3916 34.1813 4.1748C36.9938 6.95801 38.4 10.3164 38.4 14.25Z" fill="black"/>
</svg>
