<svg width="30" height="30" viewBox="0 0 30 30" fill="none" xmlns="http://www.w3.org/2000/svg">
<path fill-rule="evenodd" clip-rule="evenodd" d="M11.8204 9.60414C11.1037 9.66819 10.7435 9.71741 10.2362 9.82063C9.32074 10.0069 8.39965 10.3477 7.75491 10.7386C7.66563 10.7927 7.16835 11.1362 6.64984 11.502C5.69757 12.1736 5.48216 12.3073 5.11682 12.4533C4.86502 12.5539 4.31915 12.7165 3.61695 12.9001C2.68332 13.1443 2.48418 13.2084 2.18882 13.3601C1.8233 13.5478 1.63038 13.7279 1.46092 14.0397C1.225 14.4738 1.10863 14.8936 1.05179 15.5158C1.02388 15.8213 0.987703 17.6861 1.00411 17.9727C1.0115 18.1013 1.03292 18.2523 1.05336 18.3194C1.13636 18.5921 1.36206 18.8649 1.6001 18.9802C1.81411 19.0838 1.93227 19.0974 2.52457 19.0865C3.00028 19.0777 3.05373 19.0734 3.04514 19.0448C2.98337 18.8389 2.97044 18.2432 3.02115 17.9393C3.22889 16.6941 4.12383 15.7205 5.31834 15.4403C6.33182 15.2025 7.38843 15.5113 8.11749 16.2582C8.78418 16.9412 9.10479 17.9068 8.97292 18.8345C8.95743 18.9435 8.94448 19.0408 8.94415 19.0508C8.94361 19.0664 20.7787 19.0535 20.7916 19.0379C20.7939 19.035 20.7841 18.9435 20.7698 18.8345C20.6078 17.6011 21.1871 16.4038 22.2544 15.766C22.575 15.5744 22.9077 15.4587 23.3179 15.3961C23.7194 15.3348 24.1014 15.3542 24.4914 15.4557C25.5488 15.7309 26.4008 16.5931 26.6587 17.6487C26.774 18.1208 26.7888 18.452 26.7176 18.9683L26.7046 19.0624H27.6421C28.6784 19.0624 28.639 19.067 28.7284 18.9341C28.783 18.8528 28.8997 18.523 28.935 18.3502C28.9805 18.1275 29.0098 17.5549 28.997 17.1405C28.9683 16.2116 28.8178 15.5477 28.5374 15.1133C28.1695 14.5431 27.1958 14.071 25.7321 13.7531C24.9133 13.5753 23.7097 13.3607 23.2791 13.3157C22.8227 13.2681 22.6248 13.1939 22.3835 12.9801C22.0933 12.723 21.9244 12.5914 21.588 12.3606C21.3955 12.2285 21.1462 12.0527 21.034 11.9699C20.5835 11.6377 20.2634 11.4489 19.6524 11.1551C18.7025 10.6983 18.1652 10.4954 17.173 10.2189C16.1487 9.93347 15.1674 9.75852 13.978 9.64929C13.6213 9.61654 13.3444 9.60614 12.7145 9.60184C12.2708 9.59881 11.8685 9.59984 11.8204 9.60414ZM13.1125 10.7007C13.141 10.7328 13.1708 10.941 13.2805 11.8743C13.3539 12.4984 13.4089 13.0252 13.4027 13.045C13.3966 13.0649 13.3726 13.0878 13.3494 13.0961C13.3263 13.1043 12.2315 13.0998 10.9166 13.086C9.60166 13.0722 8.21876 13.0582 7.84347 13.055C7.10644 13.0486 7.09692 13.0472 7.09692 12.943C7.09692 12.8856 7.20746 12.7696 7.53808 12.48C8.32355 11.792 9.2065 11.3197 10.2303 11.0398C11.1191 10.7968 11.9665 10.6741 12.8233 10.6645C13.0539 10.6619 13.0811 10.6653 13.1125 10.7007ZM14.8159 10.7117C16.3065 10.8626 17.6695 11.255 18.9249 11.8947C19.6286 12.2532 20.1292 12.5894 20.6199 13.0332C20.7664 13.1658 20.7925 13.2091 20.773 13.288C20.7449 13.4023 20.9375 13.4029 17.6809 13.2781C16.0345 13.215 14.6719 13.1567 14.6529 13.1485C14.6339 13.1403 14.6093 13.1164 14.5983 13.0955C14.5763 13.0535 14.289 10.9544 14.289 10.8352C14.289 10.7357 14.3429 10.6814 14.4418 10.6814C14.483 10.6814 14.6514 10.6951 14.8159 10.7117ZM5.64878 16.0782C5.13846 16.1647 4.70371 16.3882 4.35524 16.7433C4.07854 17.0253 3.88799 17.341 3.77449 17.7052C3.69307 17.9665 3.66739 18.1482 3.66945 18.4482C3.67734 19.5991 4.47216 20.5546 5.60019 20.7695C5.79507 20.8066 6.24032 20.8011 6.43511 20.7592C6.90444 20.6582 7.30475 20.4395 7.63168 20.1055C8.06186 19.6659 8.28598 19.1477 8.31414 18.5274C8.36622 17.3806 7.60067 16.3629 6.49434 16.1082C6.27663 16.058 5.85578 16.0431 5.64878 16.0782ZM23.3982 16.0806C22.6448 16.2059 22.0063 16.6814 21.6692 17.3684C21.2129 18.2984 21.4079 19.4294 22.1483 20.1462C22.7291 20.7087 23.5551 20.9284 24.3295 20.7265C25.1454 20.5138 25.7997 19.8452 26.0081 19.0113C26.2102 18.2028 25.9801 17.3517 25.3978 16.7533C25.0701 16.4166 24.6737 16.1982 24.2121 16.1C23.9968 16.0542 23.6124 16.045 23.3982 16.0806Z" fill="white"/>
</svg>
